<mxfile host="65bd71144e">
    <diagram id="DlcShFDrrP5x-UcqkNWc" name="Page-1">
        <mxGraphModel dx="520" dy="284" grid="1" gridSize="10" guides="1" tooltips="1" connect="1" arrows="1" fold="1" page="1" pageScale="1" pageWidth="827" pageHeight="1169" background="#ffffff" math="0" shadow="0">
            <root>
                <mxCell id="0"/>
                <mxCell id="1" parent="0"/>
                <mxCell id="11" value="" style="edgeStyle=none;html=1;fontSize=11;fontColor=#FFFFFF;strokeColor=#000000;" edge="1" parent="1" source="2" target="3">
                    <mxGeometry relative="1" as="geometry"/>
                </mxCell>
                <mxCell id="2" value="INICIO" style="ellipse;whiteSpace=wrap;html=1;fillColor=#6a00ff;fontColor=#ffffff;strokeColor=#3700CC;" vertex="1" parent="1">
                    <mxGeometry x="200" width="120" height="80" as="geometry"/>
                </mxCell>
                <mxCell id="12" value="" style="edgeStyle=none;html=1;fontSize=11;fontColor=#FFFFFF;strokeColor=#000000;" edge="1" parent="1" source="3" target="4">
                    <mxGeometry relative="1" as="geometry"/>
                </mxCell>
                <mxCell id="3" value="X" style="shape=parallelogram;perimeter=parallelogramPerimeter;whiteSpace=wrap;html=1;fixedSize=1;fillColor=#60a917;fontColor=#ffffff;strokeColor=#2D7600;" vertex="1" parent="1">
                    <mxGeometry x="200" y="110" width="120" height="60" as="geometry"/>
                </mxCell>
                <mxCell id="14" style="edgeStyle=none;html=1;entryX=0.5;entryY=0;entryDx=0;entryDy=0;fontSize=11;fontColor=#FFFFFF;strokeColor=#000000;" edge="1" parent="1" source="4" target="6">
                    <mxGeometry relative="1" as="geometry">
                        <Array as="points">
                            <mxPoint x="413" y="290"/>
                        </Array>
                    </mxGeometry>
                </mxCell>
                <mxCell id="15" style="edgeStyle=none;html=1;entryX=0.5;entryY=0;entryDx=0;entryDy=0;fontSize=11;fontColor=#FFFFFF;strokeColor=#000000;" edge="1" parent="1" source="4" target="5">
                    <mxGeometry relative="1" as="geometry">
                        <Array as="points">
                            <mxPoint x="100" y="290"/>
                        </Array>
                    </mxGeometry>
                </mxCell>
                <mxCell id="4" value="(X &amp;lt;= 3 ) = 300" style="rhombus;whiteSpace=wrap;html=1;fillColor=#a20025;fontColor=#ffffff;strokeColor=#6F0000;" vertex="1" parent="1">
                    <mxGeometry x="182.5" y="210" width="155" height="160" as="geometry"/>
                </mxCell>
                <mxCell id="16" style="edgeStyle=none;html=1;entryX=0.5;entryY=0;entryDx=0;entryDy=0;fontSize=11;fontColor=#FFFFFF;strokeColor=#000000;" edge="1" parent="1" source="5" target="9">
                    <mxGeometry relative="1" as="geometry">
                        <Array as="points">
                            <mxPoint x="100" y="500"/>
                            <mxPoint x="260" y="500"/>
                        </Array>
                    </mxGeometry>
                </mxCell>
                <mxCell id="5" value="&lt;span&gt;X &amp;gt; 3:&amp;nbsp;((X * 50) + 150)&lt;/span&gt;" style="rounded=0;whiteSpace=wrap;html=1;fillColor=#1ba1e2;fontColor=#ffffff;strokeColor=#006EAF;" vertex="1" parent="1">
                    <mxGeometry x="40" y="400" width="120" height="60" as="geometry"/>
                </mxCell>
                <mxCell id="18" style="edgeStyle=none;html=1;entryX=0.5;entryY=0;entryDx=0;entryDy=0;fontSize=11;fontColor=#FFFFFF;strokeColor=#000000;" edge="1" parent="1" source="6" target="9">
                    <mxGeometry relative="1" as="geometry">
                        <Array as="points">
                            <mxPoint x="413" y="500"/>
                            <mxPoint x="260" y="500"/>
                        </Array>
                    </mxGeometry>
                </mxCell>
                <mxCell id="6" value="X = 300" style="rounded=0;whiteSpace=wrap;html=1;fillColor=#1ba1e2;fontColor=#ffffff;strokeColor=#006EAF;" vertex="1" parent="1">
                    <mxGeometry x="352.5" y="400" width="120" height="60" as="geometry"/>
                </mxCell>
                <mxCell id="7" value="&lt;font color=&quot;#000000&quot; style=&quot;font-size: 20px&quot;&gt;Verdadero&lt;/font&gt;" style="text;html=1;strokeColor=none;fillColor=none;align=center;verticalAlign=middle;whiteSpace=wrap;rounded=0;" vertex="1" parent="1">
                    <mxGeometry x="337.5" y="180" width="150" height="90" as="geometry"/>
                </mxCell>
                <mxCell id="8" value="&lt;font color=&quot;#000000&quot;&gt;&lt;span style=&quot;font-size: 20px&quot;&gt;Falso&lt;/span&gt;&lt;/font&gt;" style="text;html=1;strokeColor=none;fillColor=none;align=center;verticalAlign=middle;whiteSpace=wrap;rounded=0;" vertex="1" parent="1">
                    <mxGeometry x="25" y="180" width="150" height="90" as="geometry"/>
                </mxCell>
                <mxCell id="19" value="" style="edgeStyle=none;html=1;fontSize=11;fontColor=#FFFFFF;strokeColor=#000000;" edge="1" parent="1" source="9" target="10">
                    <mxGeometry relative="1" as="geometry"/>
                </mxCell>
                <mxCell id="9" value="&lt;font style=&quot;font-size: 11px&quot; color=&quot;#ffffff&quot;&gt;X&lt;/font&gt;" style="shape=document;whiteSpace=wrap;html=1;boundedLbl=1;fontSize=20;fontColor=#ffffff;fillColor=#60a917;strokeColor=#2D7600;" vertex="1" parent="1">
                    <mxGeometry x="200" y="530" width="120" height="80" as="geometry"/>
                </mxCell>
                <mxCell id="10" value="FIN" style="ellipse;whiteSpace=wrap;html=1;fontSize=11;fontColor=#ffffff;fillColor=#6a00ff;strokeColor=#3700CC;" vertex="1" parent="1">
                    <mxGeometry x="200" y="670" width="120" height="80" as="geometry"/>
                </mxCell>
            </root>
        </mxGraphModel>
    </diagram>
</mxfile>